<svg width="368" height="51" viewBox="0 0 368 51" fill="none" xmlns="http://www.w3.org/2000/svg">
<rect y="0.633545" width="367.071" height="50" rx="15" fill="#373A3A" fill-opacity="0.5"/>
<path d="M38.2316 16.6895V18.1935H36.6156V33.0895H38.2316V34.6095H34.9036V16.6895H38.2316ZM45.2133 20.9455H46.3013V21.1375C46.3013 23.2655 44.7333 24.9295 42.2853 25.5375L41.7413 24.4815C43.8053 24.0175 45.2133 22.6735 45.2133 21.1375V20.9455ZM45.4533 20.9455H46.5413V21.1375C46.5413 22.5935 47.9333 23.8255 49.9813 24.2895L49.4373 25.3295C47.0213 24.7535 45.4533 23.1695 45.4533 21.1375V20.9455ZM42.0453 20.0495H49.7093V21.1055H42.0453V20.0495ZM45.1973 18.4495H46.5413V20.7535H45.1973V18.4495ZM45.2293 26.6895H46.5573V32.4655H45.2293V26.6895ZM51.6293 18.4175H52.9413V32.8975H51.6293V18.4175ZM41.2453 27.6655L41.0693 26.5455C43.8053 26.5455 47.4373 26.5295 50.6053 26.0815L50.7013 27.0575C47.4533 27.6175 43.9333 27.6655 41.2453 27.6655ZM63.084 21.8575H66.972V22.9615H63.084V21.8575ZM59.756 19.0735C61.916 19.0735 63.484 20.4495 63.484 22.4335C63.484 24.4175 61.916 25.7775 59.756 25.7775C57.596 25.7775 56.028 24.4175 56.028 22.4335C56.028 20.4495 57.596 19.0735 59.756 19.0735ZM59.756 20.1935C58.332 20.1935 57.308 21.1055 57.308 22.4335C57.308 23.7455 58.332 24.6735 59.756 24.6735C61.18 24.6735 62.204 23.7455 62.204 22.4335C62.204 21.1055 61.18 20.1935 59.756 20.1935ZM66.38 18.4175H67.708V26.1775H66.38V18.4175ZM58.444 26.8975H59.772V28.7215H66.396V26.8975H67.708V32.6895H58.444V26.8975ZM59.772 29.7775V31.6175H66.396V29.7775H59.772ZM81.4508 18.4175H82.7148V29.2335H81.4508V18.4175ZM76.3788 22.4975H79.1148V23.5855H76.3788V22.4975ZM78.6988 18.7055H79.9628V28.8175H78.6988V18.7055ZM73.2908 31.4735H83.1628V32.5615H73.2908V31.4735ZM73.2908 27.9055H74.6188V32.0335H73.2908V27.9055ZM71.1788 19.8095H76.7628V26.4335H71.1788V19.8095ZM75.5148 20.8495H72.4108V25.3775H75.5148V20.8495ZM86.9375 25.9215H96.8735V26.9935H86.9375V25.9215ZM85.2575 29.9855H98.3615V31.0895H85.2575V29.9855ZM91.1295 26.4815H92.4415V30.4975H91.1295V26.4815ZM86.9375 19.5855H96.7135V20.6735H88.2815V26.3215H86.9375V19.5855ZM87.8495 22.6895H96.4095V23.7615H87.8495V22.6895ZM104.552 34.6095H101.224V33.0895H102.84V18.1935H101.224V16.6895H104.552V34.6095ZM115.723 19.5215C117.851 19.5215 119.355 21.4895 119.355 24.5615C119.355 27.6495 117.851 29.6175 115.723 29.6175C113.595 29.6175 112.091 27.6495 112.091 24.5615C112.091 21.4895 113.595 19.5215 115.723 19.5215ZM115.723 20.7215C114.315 20.7215 113.355 22.2255 113.355 24.5615C113.355 26.9135 114.315 28.4495 115.723 28.4495C117.115 28.4495 118.091 26.9135 118.091 24.5615C118.091 22.2255 117.115 20.7215 115.723 20.7215ZM121.659 18.4175H123.003V32.8815H121.659V18.4175ZM122.683 24.1935H125.371V25.3135H122.683V24.1935ZM137.097 18.4015H138.425V32.8975H137.097V18.4015ZM130.793 19.5215C132.937 19.5215 134.473 21.4895 134.473 24.5615C134.473 27.6495 132.937 29.6175 130.793 29.6175C128.665 29.6175 127.129 27.6495 127.129 24.5615C127.129 21.4895 128.665 19.5215 130.793 19.5215ZM130.793 20.7215C129.385 20.7215 128.393 22.2255 128.393 24.5615C128.393 26.9135 129.385 28.4495 130.793 28.4495C132.217 28.4495 133.193 26.9135 133.193 24.5615C133.193 22.2255 132.217 20.7215 130.793 20.7215ZM147.192 22.7855H148.504V25.3775H147.192V22.7855ZM143.048 22.2575H152.84V23.3295H143.048V22.2575ZM143.048 18.9775H152.68V20.0495H144.36V22.8335H143.048V18.9775ZM141.304 24.6895H154.376V25.7615H141.304V24.6895ZM142.888 26.9775H152.712V30.2415H144.232V31.9855H142.92V29.2655H151.4V28.0015H142.888V26.9775ZM142.92 31.6815H153.144V32.7215H142.92V31.6815ZM164.307 20.9455H165.395V21.1375C165.395 23.2655 163.827 24.9295 161.379 25.5375L160.835 24.4815C162.899 24.0175 164.307 22.6735 164.307 21.1375V20.9455ZM164.547 20.9455H165.635V21.1375C165.635 22.5935 167.027 23.8255 169.075 24.2895L168.531 25.3295C166.115 24.7535 164.547 23.1695 164.547 21.1375V20.9455ZM161.139 20.0495H168.803V21.1055H161.139V20.0495ZM164.291 18.4495H165.635V20.7535H164.291V18.4495ZM164.323 26.6895H165.651V32.4655H164.323V26.6895ZM170.723 18.4175H172.035V32.8975H170.723V18.4175ZM160.339 27.6655L160.163 26.5455C162.899 26.5455 166.531 26.5295 169.699 26.0815L169.795 27.0575C166.547 27.6175 163.027 27.6655 160.339 27.6655ZM182.178 21.8575H186.066V22.9615H182.178V21.8575ZM178.85 19.0735C181.01 19.0735 182.578 20.4495 182.578 22.4335C182.578 24.4175 181.01 25.7775 178.85 25.7775C176.69 25.7775 175.122 24.4175 175.122 22.4335C175.122 20.4495 176.69 19.0735 178.85 19.0735ZM178.85 20.1935C177.426 20.1935 176.402 21.1055 176.402 22.4335C176.402 23.7455 177.426 24.6735 178.85 24.6735C180.274 24.6735 181.298 23.7455 181.298 22.4335C181.298 21.1055 180.274 20.1935 178.85 20.1935ZM185.474 18.4175H186.802V26.1775H185.474V18.4175ZM177.538 26.8975H178.866V28.7215H185.49V26.8975H186.802V32.6895H177.538V26.8975ZM178.866 29.7775V31.6175H185.49V29.7775H178.866ZM196.161 18.6575C199.345 18.6575 201.249 19.5535 201.249 21.1695C201.249 22.7855 199.345 23.6815 196.161 23.6815C192.961 23.6815 191.073 22.7855 191.073 21.1695C191.073 19.5535 192.961 18.6575 196.161 18.6575ZM196.161 19.6655C193.793 19.6655 192.433 20.2095 192.433 21.1695C192.433 22.1295 193.793 22.6735 196.161 22.6735C198.513 22.6735 199.873 22.1295 199.873 21.1695C199.873 20.2095 198.513 19.6655 196.161 19.6655ZM189.617 24.6415H202.689V25.7135H189.617V24.6415ZM191.201 26.9455H201.025V30.2095H192.545V31.9695H191.233V29.2495H199.713V27.9695H191.201V26.9455ZM191.233 31.6815H201.457V32.7215H191.233V31.6815ZM213.228 19.0895C215.388 19.0895 216.924 20.2895 216.924 22.0655C216.924 23.8255 215.388 25.0575 213.228 25.0575C211.084 25.0575 209.548 23.8255 209.548 22.0655C209.548 20.2895 211.084 19.0895 213.228 19.0895ZM213.228 20.1935C211.82 20.1935 210.812 20.9615 210.812 22.0655C210.812 23.1855 211.82 23.9375 213.228 23.9375C214.636 23.9375 215.644 23.1855 215.644 22.0655C215.644 20.9615 214.636 20.1935 213.228 20.1935ZM212.636 26.6575H213.964V32.4335H212.636V26.6575ZM219.036 18.4175H220.348V32.8975H219.036V18.4175ZM208.652 27.3775L208.476 26.2575C211.164 26.2575 214.828 26.2255 218.012 25.7455L218.108 26.7375C214.844 27.3295 211.292 27.3775 208.652 27.3775ZM233.114 18.4335H234.442V29.2815H233.114V18.4335ZM234.026 23.1695H236.586V24.2895H234.026V23.1695ZM223.258 20.1775H231.802V21.2495H223.258V20.1775ZM227.53 22.0495C229.578 22.0495 230.986 23.1215 230.986 24.7535C230.986 26.3695 229.578 27.4415 227.53 27.4415C225.466 27.4415 224.058 26.3695 224.058 24.7535C224.058 23.1215 225.466 22.0495 227.53 22.0495ZM227.53 23.0895C226.218 23.0895 225.322 23.7455 225.322 24.7535C225.322 25.7455 226.218 26.4015 227.53 26.4015C228.826 26.4015 229.722 25.7455 229.722 24.7535C229.722 23.7455 228.826 23.0895 227.53 23.0895ZM226.858 18.4175H228.186V20.7375H226.858V18.4175ZM225.434 31.4735H235.098V32.5615H225.434V31.4735ZM225.434 28.4175H226.762V31.9375H225.434V28.4175ZM245.701 20.8975H246.789V21.5215C246.789 24.0495 245.189 26.1935 242.789 27.0255L242.133 25.9855C244.277 25.2655 245.701 23.4735 245.701 21.5215V20.8975ZM245.941 20.8975H247.029V21.5215C247.029 23.2815 248.437 24.9455 250.533 25.6175L249.909 26.6415C247.509 25.8735 245.941 23.8575 245.941 21.5215V20.8975ZM242.501 20.1135H250.213V21.1855H242.501V20.1135ZM245.701 18.3535H247.029V20.5615H245.701V18.3535ZM249.797 22.4975H253.045V23.6015H249.797V22.4975ZM252.677 18.4175H254.005V28.4335H252.677V18.4175ZM248.661 27.4735H249.797V27.7775C249.797 30.3855 247.269 32.3055 244.325 32.8335L243.813 31.7775C246.373 31.3455 248.661 29.7455 248.661 27.7775V27.4735ZM248.885 27.4735H250.021V27.7775C250.021 29.7935 252.293 31.3455 254.885 31.7775L254.357 32.8335C251.429 32.2895 248.885 30.4495 248.885 27.7775V27.4735ZM267.38 18.4175H268.708V25.8255H267.38V18.4175ZM264.244 21.8895H267.588V22.9615H264.244V21.8895ZM262.74 19.1215H264.132C264.132 22.7215 261.636 25.0735 257.492 26.1295L257.028 25.0575C260.692 24.1615 262.74 22.2575 262.74 19.7135V19.1215ZM257.796 19.1215H263.812V20.1935H257.796V19.1215ZM259.396 26.4495H268.708V30.0175H260.756V32.3055H259.444V28.9935H267.396V27.5215H259.396V26.4495ZM259.444 31.6815H269.188V32.7375H259.444V31.6815ZM278.067 18.7375C281.187 18.7375 283.155 19.7615 283.155 21.4735C283.155 23.1855 281.187 24.1935 278.067 24.1935C274.931 24.1935 272.979 23.1855 272.979 21.4735C272.979 19.7615 274.931 18.7375 278.067 18.7375ZM278.067 19.7935C275.763 19.7935 274.339 20.4015 274.339 21.4735C274.339 22.5295 275.763 23.1535 278.067 23.1535C280.355 23.1535 281.795 22.5295 281.795 21.4735C281.795 20.4015 280.355 19.7935 278.067 19.7935ZM273.123 27.9215H282.995V32.6895H273.123V27.9215ZM281.699 28.9935H274.435V31.6175H281.699V28.9935ZM271.523 25.4415H284.595V26.5135H271.523V25.4415ZM301.326 18.4175H302.59V29.2335H301.326V18.4175ZM296.254 22.4975H298.99V23.5855H296.254V22.4975ZM298.574 18.7055H299.838V28.8175H298.574V18.7055ZM293.166 31.4735H303.038V32.5615H293.166V31.4735ZM293.166 27.9055H294.494V32.0335H293.166V27.9055ZM291.054 19.8095H296.638V26.4335H291.054V19.8095ZM295.39 20.8495H292.286V25.3775H295.39V20.8495ZM306.813 25.9215H316.749V26.9935H306.813V25.9215ZM305.133 29.9855H318.237V31.0895H305.133V29.9855ZM311.005 26.4815H312.317V30.4975H311.005V26.4815ZM306.813 19.5855H316.589V20.6735H308.157V26.3215H306.813V19.5855ZM307.725 22.6895H316.285V23.7615H307.725V22.6895ZM330.363 18.4335H331.707V27.3135H330.363V18.4335ZM320.587 25.3455H321.755C324.379 25.3455 326.315 25.2655 328.635 24.8815L328.779 25.9695C326.395 26.3695 324.443 26.4335 321.755 26.4335H320.587V25.3455ZM320.555 19.3295H327.115V23.3295H321.883V25.9535H320.587V22.2895H325.819V20.4175H320.555V19.3295ZM326.939 27.6335C329.947 27.6335 331.803 28.5775 331.803 30.2415C331.803 31.9055 329.947 32.8655 326.939 32.8655C323.915 32.8655 322.091 31.9055 322.091 30.2415C322.091 28.5775 323.915 27.6335 326.939 27.6335ZM326.939 28.6895C324.731 28.6895 323.403 29.2495 323.403 30.2415C323.403 31.2335 324.731 31.8095 326.939 31.8095C329.147 31.8095 330.475 31.2335 330.475 30.2415C330.475 29.2495 329.147 28.6895 326.939 28.6895Z" fill="white"/>
</svg>
